<?xml version="1.0" encoding="UTF-8"?>
<svg width="46px" height="46px" viewBox="0 0 46 46" version="1.1" xmlns="http://www.w3.org/2000/svg" xmlns:xlink="http://www.w3.org/1999/xlink">
    <!-- Generator: Sketch 51.3 (57544) - http://www.bohemiancoding.com/sketch -->
    <title>logo</title>
    <desc>Created with Sketch.</desc>
    <defs></defs>
    <g id="Page-1" stroke="none" stroke-width="1" fill="none" fill-rule="evenodd">
        <g id="logo" transform="translate(0.000000, 0.094727)">
            <path d="M23.344,0.0699375 L23.344,45.0859375 C21.2586562,45.0859375 19.1960102,44.802607 17.156,44.2359375 C15.1159898,43.669268 13.1440095,42.7739436 11.24,41.5499375 C8.61065352,39.8725958 6.46867494,37.8099497 4.814,35.3619375 C3.15932506,32.9139253 2.01466984,30.273285 1.38,27.4399375 C0.74533016,24.60659 0.66599762,21.7279521 1.142,18.8039375 C1.61800238,15.8799229 2.69465828,13.103284 4.372,10.4739375 C6.54801088,7.11925406 9.32464978,4.55794634 12.702,2.7899375 C16.0793502,1.02192866 19.6266481,0.11527106 23.344,0.0699375 Z" id="ronan" fill="#CE4941"></path>
            <path d="M35.448,3.6059375 C38.0773465,5.28327922 40.2193251,7.35725848 41.874,9.8279375 C43.5286749,12.2986165 44.6733302,14.9392568 45.308,17.7499375 C45.9426698,20.5606182 46.0220024,23.4279229 45.546,26.3519375 C45.0699976,29.2759521 43.9933417,32.052591 42.316,34.6819375 C40.1399891,38.0819545 37.3633502,40.6659287 33.986,42.4339375 C30.6086498,44.2019463 27.0613519,45.0859375 23.344,45.0859375 L23.344,0.0699375 C25.4293438,0.0699375 27.4919898,0.36460122 29.532,0.9539375 C31.5720102,1.54327378 33.5439905,2.42726494 35.448,3.6059375 Z" id="RONAN" fill="#F9C38D"></path>
        </g>
    </g>
</svg>