<?xml version="1.0" encoding="UTF-8"?>
<svg width="236px" height="46px" viewBox="0 0 236 46" version="1.1" xmlns="http://www.w3.org/2000/svg" xmlns:xlink="http://www.w3.org/1999/xlink">
    <!-- Generator: Sketch 51.3 (57544) - http://www.bohemiancoding.com/sketch -->
    <title>Group</title>
    <desc>Created with Sketch.</desc>
    <defs></defs>
    <g id="Page-1" stroke="none" stroke-width="1" fill="none" fill-rule="evenodd">
        <g id="Group" fill="#CE4941">
            <path d="M23.688,45.0859375 L0.5,45.0859375 L0.5,0.0699375 L23.688,0.0699375 L23.688,45.0859375 Z M67.344,0.0699375 L67.344,45.0859375 C65.2586562,45.0859375 63.1960102,44.802607 61.156,44.2359375 C59.1159898,43.669268 57.1440095,42.7739436 55.24,41.5499375 C52.6106535,39.8725958 50.4686749,37.8099497 48.814,35.3619375 C47.1593251,32.9139253 46.0146698,30.273285 45.38,27.4399375 C44.7453302,24.60659 44.6659976,21.7279521 45.142,18.8039375 C45.6180024,15.8799229 46.6946583,13.103284 48.372,10.4739375 C50.5480109,7.11925406 53.3246498,4.55794634 56.702,2.7899375 C60.0793502,1.02192866 63.6266481,0.11527106 67.344,0.0699375 Z M118.208,0.0699375 L136.16,45.0859375 L112.904,45.0859375 L94.952,0.0699375 L118.208,0.0699375 Z M190.288,45.0859375 L165.808,45.0859375 L153.16,0.0699375 L177.572,0.0699375 L190.288,45.0859375 Z M218.032,0.0699375 L235.984,45.0859375 L212.728,45.0859375 L194.776,0.0699375 L218.032,0.0699375 Z" id="ronan"></path>
        </g>
    </g>
</svg>