<?xml version="1.0" encoding="UTF-8"?>
<svg width="236px" height="46px" viewBox="0 0 236 46" version="1.1" xmlns="http://www.w3.org/2000/svg" xmlns:xlink="http://www.w3.org/1999/xlink">
    <!-- Generator: Sketch 51.3 (57544) - http://www.bohemiancoding.com/sketch -->
    <title>Ronan</title>
    <desc>Ronan Title Image</desc>
    <defs></defs>
    <g id="Page-1" stroke="none" stroke-width="1" fill="none" fill-rule="evenodd">
        <g id="Group">
            <path d="M23.688,45.0859375 L0.5,45.0859375 L0.5,0.0699375 L23.688,0.0699375 L23.688,45.0859375 Z M67.344,0.0699375 L67.344,45.0859375 C65.2586562,45.0859375 63.1960102,44.802607 61.156,44.2359375 C59.1159898,43.669268 57.1440095,42.7739436 55.24,41.5499375 C52.6106535,39.8725958 50.4686749,37.8099497 48.814,35.3619375 C47.1593251,32.9139253 46.0146698,30.273285 45.38,27.4399375 C44.7453302,24.60659 44.6659976,21.7279521 45.142,18.8039375 C45.6180024,15.8799229 46.6946583,13.103284 48.372,10.4739375 C50.5480109,7.11925406 53.3246498,4.55794634 56.702,2.7899375 C60.0793502,1.02192866 63.6266481,0.11527106 67.344,0.0699375 Z M118.208,0.0699375 L136.16,45.0859375 L112.904,45.0859375 L94.952,0.0699375 L118.208,0.0699375 Z M190.288,45.0859375 L165.808,45.0859375 L153.16,0.0699375 L177.572,0.0699375 L190.288,45.0859375 Z M218.032,0.0699375 L235.984,45.0859375 L212.728,45.0859375 L194.776,0.0699375 L218.032,0.0699375 Z" id="ronan" fill="#CE4941"></path>
            <path d="M39.736,45.0859375 L23.688,45.0859375 L23.688,32.9819375 L24.368,32.9819375 C24.5946678,32.9819375 24.8213322,32.9592711 25.048,32.9139375 L39.736,45.0859375 Z M23.688,0.0699375 C25.954678,0.0699375 28.0966566,0.50059986 30.114,1.3619375 C32.1313434,2.22327514 33.8879925,3.40193002 35.384,4.8979375 C36.8800075,6.39394498 38.0586624,8.13926086 38.92,10.1339375 C39.7813376,12.1286141 40.212,14.2592595 40.212,16.5259375 C40.212,18.7019484 39.8153373,20.741928 39.022,22.6459375 C38.2286627,24.549947 37.1520068,26.2385968 35.792,27.7119375 C34.4319932,29.1852782 32.8340092,30.3752663 30.998,31.2819375 C29.1619908,32.1886087 27.1786773,32.7326033 25.048,32.9139375 C24.8213322,32.9592711 24.5946678,32.9819375 24.368,32.9819375 L23.688,32.9819375 L23.688,0.0699375 Z M79.448,3.6059375 C82.0773465,5.28327922 84.2193251,7.35725848 85.874,9.8279375 C87.5286749,12.2986165 88.6733302,14.9392568 89.308,17.7499375 C89.9426698,20.5606182 90.0220024,23.4279229 89.546,26.3519375 C89.0699976,29.2759521 87.9933417,32.052591 86.316,34.6819375 C84.1399891,38.0819545 81.3633502,40.6659287 77.986,42.4339375 C74.6086498,44.2019463 71.0613519,45.0859375 67.344,45.0859375 L67.344,0.0699375 C69.4293438,0.0699375 71.4919898,0.36460122 73.532,0.9539375 C75.5720102,1.54327378 77.5439905,2.42726494 79.448,3.6059375 Z M136.16,0.0699375 L136.16,45.0859375 L118.208,0.0699375 L136.16,0.0699375 Z M94.952,0.0699375 L112.904,45.0859375 L94.952,45.0859375 L94.952,0.0699375 Z M165.808,45.0859375 L140.444,45.0859375 L153.16,0.0699375 L165.808,45.0859375 Z M235.984,0.0699375 L235.984,45.0859375 L218.032,0.0699375 L235.984,0.0699375 Z M194.776,0.0699375 L212.728,45.0859375 L194.776,45.0859375 L194.776,0.0699375 Z" id="RONAN" fill="#F9C38D"></path>
        </g>
    </g>
</svg>